# xmcd
#
# Track frame offsets: 
#        150
#        14735
#        35851
#        60337
#        86656
#        109512
#        131478
#        151157
#        171795
#        185720
#
# Disc length: 2707 seconds
#
# Revision: 0
# Processed by: cddbd v1.5PL3 Copyright (c) Steve Scherf et al.
# Submitted via: ExactAudioCopy v0.95a4
#
DISCID=800a910a
DTITLE=Jimmy "Preacher" Ellis - That's Why WeAll Have The Blues
DYEAR=2001
DGENRE=Blues
TTITLE0=That's Why We All Have The Blues
TTITLE1=Shame, Shame, Shame
TTITLE2=Dirty Work Goin' On
TTITLE3=Hoochie Coochie Man
TTITLE4=Who's The Fool
TTITLE5=Open house At My House
TTITLE6=Bad Car Blues
TTITLE7=I Can't Work And Watch You
TTITLE8=Mean Husband Blues
TTITLE9=I've Got My Mojo Workin'
EXTD=
EXTT0=
EXTT1=
EXTT2=
EXTT3=
EXTT4=
EXTT5=
EXTT6=
EXTT7=
EXTT8=
EXTT9=
PLAYORDER=
